<mxfile host="app.diagrams.net" modified="2023-12-21T10:14:34.695Z" agent="Mozilla/5.0 (Windows NT 10.0; Win64; x64) AppleWebKit/537.36 (KHTML, like Gecko) Chrome/120.0.0.0 Safari/537.36" etag="9RwV5DjRh7xJduFX3h1A" version="22.1.11" type="device">
  <diagram name="第 1 页" id="JB96hzalT-PHzTR9rZ6N">
    <mxGraphModel dx="1434" dy="-3930" grid="1" gridSize="10" guides="1" tooltips="1" connect="1" arrows="1" fold="1" page="1" pageScale="1" pageWidth="827" pageHeight="1169" math="0" shadow="0">
      <root>
        <mxCell id="0" />
        <mxCell id="1" parent="0" />
        <mxCell id="LJgANaCoyNPMsnwmoq_h-169" value="Patient" style="shape=umlLifeline;perimeter=lifelinePerimeter;whiteSpace=wrap;container=1;dropTarget=0;collapsible=0;recursiveResize=0;outlineConnect=0;portConstraint=eastwest;newEdgeStyle={&quot;edgeStyle&quot;:&quot;elbowEdgeStyle&quot;,&quot;elbow&quot;:&quot;vertical&quot;,&quot;curved&quot;:0,&quot;rounded&quot;:0};size=65;" vertex="1" parent="1">
          <mxGeometry x="35" y="5440" width="150" height="2150" as="geometry" />
        </mxCell>
        <mxCell id="LJgANaCoyNPMsnwmoq_h-170" value="Billing" style="shape=umlLifeline;perimeter=lifelinePerimeter;whiteSpace=wrap;container=1;dropTarget=0;collapsible=0;recursiveResize=0;outlineConnect=0;portConstraint=eastwest;newEdgeStyle={&quot;edgeStyle&quot;:&quot;elbowEdgeStyle&quot;,&quot;elbow&quot;:&quot;vertical&quot;,&quot;curved&quot;:0,&quot;rounded&quot;:0};size=65;" vertex="1" parent="1">
          <mxGeometry x="356" y="5440" width="150" height="2150" as="geometry" />
        </mxCell>
        <mxCell id="LJgANaCoyNPMsnwmoq_h-171" value="Notifications" style="shape=umlLifeline;perimeter=lifelinePerimeter;whiteSpace=wrap;container=1;dropTarget=0;collapsible=0;recursiveResize=0;outlineConnect=0;portConstraint=eastwest;newEdgeStyle={&quot;edgeStyle&quot;:&quot;elbowEdgeStyle&quot;,&quot;elbow&quot;:&quot;vertical&quot;,&quot;curved&quot;:0,&quot;rounded&quot;:0};size=65;" vertex="1" parent="1">
          <mxGeometry x="629" y="5440" width="164" height="2150" as="geometry" />
        </mxCell>
        <mxCell id="LJgANaCoyNPMsnwmoq_h-172" value="alt" style="shape=umlFrame;dashed=1;pointerEvents=0;dropTarget=0;strokeColor=#B3B3B3;height=20;width=30" vertex="1" parent="1">
          <mxGeometry x="25" y="6387" width="416" height="256" as="geometry" />
        </mxCell>
        <mxCell id="LJgANaCoyNPMsnwmoq_h-173" value="[retries]" style="text;strokeColor=none;fillColor=none;align=center;verticalAlign=middle;whiteSpace=wrap;" vertex="1" parent="LJgANaCoyNPMsnwmoq_h-172">
          <mxGeometry x="30" width="386" height="20" as="geometry" />
        </mxCell>
        <mxCell id="LJgANaCoyNPMsnwmoq_h-174" value="[cancels]" style="shape=line;dashed=1;whiteSpace=wrap;verticalAlign=top;labelPosition=center;verticalLabelPosition=middle;align=center;strokeColor=#B3B3B3;" vertex="1" parent="LJgANaCoyNPMsnwmoq_h-172">
          <mxGeometry y="103" width="416" height="4" as="geometry" />
        </mxCell>
        <mxCell id="LJgANaCoyNPMsnwmoq_h-175" value="alt" style="shape=umlFrame;dashed=1;pointerEvents=0;dropTarget=0;strokeColor=#B3B3B3;height=20;width=30" vertex="1" parent="1">
          <mxGeometry x="15" y="6207" width="898" height="1288" as="geometry" />
        </mxCell>
        <mxCell id="LJgANaCoyNPMsnwmoq_h-176" value="[paymentError]" style="text;strokeColor=none;fillColor=none;align=center;verticalAlign=middle;whiteSpace=wrap;" vertex="1" parent="LJgANaCoyNPMsnwmoq_h-175">
          <mxGeometry x="30" width="868" height="20" as="geometry" />
        </mxCell>
        <mxCell id="LJgANaCoyNPMsnwmoq_h-177" value="[paymentSuccess]" style="shape=line;dashed=1;whiteSpace=wrap;verticalAlign=top;labelPosition=center;verticalLabelPosition=middle;align=center;strokeColor=#B3B3B3;" vertex="1" parent="LJgANaCoyNPMsnwmoq_h-175">
          <mxGeometry y="451" width="898" height="4" as="geometry" />
        </mxCell>
        <mxCell id="LJgANaCoyNPMsnwmoq_h-178" value="login(credentials)" style="verticalAlign=bottom;endArrow=block;elbow=vertical;rounded=0;exitX=1;exitY=0.004;exitDx=0;exitDy=0;exitPerimeter=0;entryX=-0.067;entryY=0.133;entryDx=0;entryDy=0;entryPerimeter=0;" edge="1" parent="1" source="LJgANaCoyNPMsnwmoq_h-206" target="LJgANaCoyNPMsnwmoq_h-207">
          <mxGeometry relative="1" as="geometry" />
        </mxCell>
        <mxCell id="LJgANaCoyNPMsnwmoq_h-179" value="authenticatePatient(credentials)" style="curved=1;rounded=0;" edge="1" parent="1" source="LJgANaCoyNPMsnwmoq_h-170" target="LJgANaCoyNPMsnwmoq_h-170">
          <mxGeometry relative="1" as="geometry">
            <Array as="points">
              <mxPoint x="481" y="5599" />
              <mxPoint x="481" y="5629" />
            </Array>
          </mxGeometry>
        </mxCell>
        <mxCell id="LJgANaCoyNPMsnwmoq_h-180" value="loginResponse(success)" style="verticalAlign=bottom;endArrow=block;elbow=vertical;rounded=0;dashed=1;dashPattern=2 3;entryX=1.033;entryY=0.072;entryDx=0;entryDy=0;entryPerimeter=0;exitX=0;exitY=0.25;exitDx=0;exitDy=0;" edge="1" parent="1" source="LJgANaCoyNPMsnwmoq_h-209" target="LJgANaCoyNPMsnwmoq_h-206">
          <mxGeometry relative="1" as="geometry" />
        </mxCell>
        <mxCell id="LJgANaCoyNPMsnwmoq_h-181" value="viewBills(patientId)" style="verticalAlign=bottom;endArrow=block;edgeStyle=elbowEdgeStyle;elbow=vertical;curved=0;rounded=0;exitX=0.967;exitY=0.097;exitDx=0;exitDy=0;exitPerimeter=0;entryX=0;entryY=0.664;entryDx=0;entryDy=0;entryPerimeter=0;" edge="1" parent="1" source="LJgANaCoyNPMsnwmoq_h-206" target="LJgANaCoyNPMsnwmoq_h-209">
          <mxGeometry relative="1" as="geometry">
            <Array as="points">
              <mxPoint x="281" y="5733" />
            </Array>
          </mxGeometry>
        </mxCell>
        <mxCell id="LJgANaCoyNPMsnwmoq_h-182" value="retrieveBills(patientId)" style="curved=1;rounded=0;" edge="1" parent="1" source="LJgANaCoyNPMsnwmoq_h-170" target="LJgANaCoyNPMsnwmoq_h-170">
          <mxGeometry relative="1" as="geometry">
            <Array as="points">
              <mxPoint x="481" y="5785" />
              <mxPoint x="481" y="5815" />
            </Array>
          </mxGeometry>
        </mxCell>
        <mxCell id="LJgANaCoyNPMsnwmoq_h-183" value="billsList(billForms)" style="verticalAlign=bottom;endArrow=block;elbow=vertical;rounded=0;dashed=1;dashPattern=2 3;entryX=1.167;entryY=0.166;entryDx=0;entryDy=0;entryPerimeter=0;exitX=0;exitY=0.25;exitDx=0;exitDy=0;" edge="1" parent="1" source="LJgANaCoyNPMsnwmoq_h-210" target="LJgANaCoyNPMsnwmoq_h-206">
          <mxGeometry relative="1" as="geometry" />
        </mxCell>
        <mxCell id="LJgANaCoyNPMsnwmoq_h-184" value="selectBill(billId)" style="verticalAlign=bottom;endArrow=block;elbow=vertical;rounded=0;exitX=1.2;exitY=0.191;exitDx=0;exitDy=0;exitPerimeter=0;entryX=0;entryY=0.75;entryDx=0;entryDy=0;" edge="1" parent="1" source="LJgANaCoyNPMsnwmoq_h-206" target="LJgANaCoyNPMsnwmoq_h-210">
          <mxGeometry relative="1" as="geometry" />
        </mxCell>
        <mxCell id="LJgANaCoyNPMsnwmoq_h-185" value="getBillDetails(billId)" style="curved=1;rounded=0;" edge="1" parent="1" source="LJgANaCoyNPMsnwmoq_h-170" target="LJgANaCoyNPMsnwmoq_h-170">
          <mxGeometry relative="1" as="geometry">
            <Array as="points">
              <mxPoint x="481" y="5971" />
              <mxPoint x="481" y="6001" />
            </Array>
          </mxGeometry>
        </mxCell>
        <mxCell id="LJgANaCoyNPMsnwmoq_h-186" value="billDetails(billForm)" style="verticalAlign=bottom;endArrow=block;elbow=vertical;rounded=0;dashed=1;dashPattern=2 3;entryX=1.167;entryY=0.26;entryDx=0;entryDy=0;entryPerimeter=0;exitX=0;exitY=0.25;exitDx=0;exitDy=0;" edge="1" parent="1" source="LJgANaCoyNPMsnwmoq_h-211" target="LJgANaCoyNPMsnwmoq_h-206">
          <mxGeometry relative="1" as="geometry" />
        </mxCell>
        <mxCell id="LJgANaCoyNPMsnwmoq_h-187" value="initiatePayment(billId, paymentInfo)" style="verticalAlign=bottom;endArrow=block;elbow=vertical;rounded=0;exitX=1.033;exitY=0.284;exitDx=0;exitDy=0;exitPerimeter=0;entryX=0;entryY=0.75;entryDx=0;entryDy=0;" edge="1" parent="1" source="LJgANaCoyNPMsnwmoq_h-206" target="LJgANaCoyNPMsnwmoq_h-211">
          <mxGeometry relative="1" as="geometry" />
        </mxCell>
        <mxCell id="LJgANaCoyNPMsnwmoq_h-188" value="processPayment(billId, paymentInfo)" style="curved=1;rounded=0;" edge="1" parent="1" source="LJgANaCoyNPMsnwmoq_h-170" target="LJgANaCoyNPMsnwmoq_h-170">
          <mxGeometry relative="1" as="geometry">
            <Array as="points">
              <mxPoint x="481" y="6157" />
              <mxPoint x="481" y="6187" />
            </Array>
          </mxGeometry>
        </mxCell>
        <mxCell id="LJgANaCoyNPMsnwmoq_h-189" value="paymentStatus(failure)" style="verticalAlign=bottom;endArrow=block;elbow=vertical;rounded=0;dashed=1;dashPattern=2 3;entryX=1;entryY=0.377;entryDx=0;entryDy=0;entryPerimeter=0;" edge="1" parent="1" target="LJgANaCoyNPMsnwmoq_h-206">
          <mxGeometry relative="1" as="geometry">
            <mxPoint x="410" y="6286" as="sourcePoint" />
          </mxGeometry>
        </mxCell>
        <mxCell id="LJgANaCoyNPMsnwmoq_h-190" value="decideRetryOrCancel()" style="curved=1;rounded=0;" edge="1" parent="1" source="LJgANaCoyNPMsnwmoq_h-169" target="LJgANaCoyNPMsnwmoq_h-169">
          <mxGeometry relative="1" as="geometry">
            <Array as="points">
              <mxPoint x="160" y="6337" />
              <mxPoint x="160" y="6367" />
            </Array>
          </mxGeometry>
        </mxCell>
        <mxCell id="LJgANaCoyNPMsnwmoq_h-191" value="initiatePayment(billId, paymentInfo)" style="verticalAlign=bottom;endArrow=block;elbow=vertical;rounded=0;exitX=0.833;exitY=0.465;exitDx=0;exitDy=0;exitPerimeter=0;entryX=-0.067;entryY=0.804;entryDx=0;entryDy=0;entryPerimeter=0;" edge="1" parent="1" source="LJgANaCoyNPMsnwmoq_h-206" target="LJgANaCoyNPMsnwmoq_h-213">
          <mxGeometry relative="1" as="geometry" />
        </mxCell>
        <mxCell id="LJgANaCoyNPMsnwmoq_h-192" value="cancelPayment()" style="curved=1;rounded=0;" edge="1" parent="1" source="LJgANaCoyNPMsnwmoq_h-169" target="LJgANaCoyNPMsnwmoq_h-169">
          <mxGeometry relative="1" as="geometry">
            <Array as="points">
              <mxPoint x="160" y="6563" />
              <mxPoint x="160" y="6593" />
            </Array>
          </mxGeometry>
        </mxCell>
        <mxCell id="LJgANaCoyNPMsnwmoq_h-193" value="generateReceipt(billId)" style="curved=1;rounded=0;" edge="1" parent="1" source="LJgANaCoyNPMsnwmoq_h-170" target="LJgANaCoyNPMsnwmoq_h-170">
          <mxGeometry relative="1" as="geometry">
            <Array as="points">
              <mxPoint x="481" y="6731" />
              <mxPoint x="481" y="6761" />
            </Array>
          </mxGeometry>
        </mxCell>
        <mxCell id="LJgANaCoyNPMsnwmoq_h-194" value="receipt(receiptInfo)" style="verticalAlign=bottom;endArrow=block;elbow=vertical;rounded=0;dashed=1;dashPattern=2 3;entryX=1.167;entryY=0.644;entryDx=0;entryDy=0;entryPerimeter=0;exitX=0;exitY=0.5;exitDx=0;exitDy=0;" edge="1" parent="1" source="LJgANaCoyNPMsnwmoq_h-214" target="LJgANaCoyNPMsnwmoq_h-206">
          <mxGeometry relative="1" as="geometry" />
        </mxCell>
        <mxCell id="LJgANaCoyNPMsnwmoq_h-195" value="updatePaymentStatus(billId, &quot;Paid&quot;)" style="curved=1;rounded=0;" edge="1" parent="1" source="LJgANaCoyNPMsnwmoq_h-170" target="LJgANaCoyNPMsnwmoq_h-170">
          <mxGeometry relative="1" as="geometry">
            <Array as="points">
              <mxPoint x="481" y="6865" />
              <mxPoint x="481" y="6895" />
            </Array>
          </mxGeometry>
        </mxCell>
        <mxCell id="LJgANaCoyNPMsnwmoq_h-196" value="paymentStatus(updateSuccess)" style="verticalAlign=bottom;endArrow=block;edgeStyle=elbowEdgeStyle;elbow=vertical;curved=0;rounded=0;dashed=1;dashPattern=2 3;entryX=0.967;entryY=0.711;entryDx=0;entryDy=0;entryPerimeter=0;exitX=0;exitY=0.145;exitDx=0;exitDy=0;exitPerimeter=0;" edge="1" parent="1" source="LJgANaCoyNPMsnwmoq_h-215" target="LJgANaCoyNPMsnwmoq_h-206">
          <mxGeometry relative="1" as="geometry">
            <Array as="points">
              <mxPoint x="281" y="6947" />
            </Array>
          </mxGeometry>
        </mxCell>
        <mxCell id="LJgANaCoyNPMsnwmoq_h-197" value="viewBillingStatement(patientId)" style="verticalAlign=bottom;endArrow=block;elbow=vertical;rounded=0;exitX=1.133;exitY=0.738;exitDx=0;exitDy=0;exitPerimeter=0;entryX=-0.233;entryY=0.636;entryDx=0;entryDy=0;entryPerimeter=0;" edge="1" parent="1" source="LJgANaCoyNPMsnwmoq_h-206" target="LJgANaCoyNPMsnwmoq_h-215">
          <mxGeometry relative="1" as="geometry" />
        </mxCell>
        <mxCell id="LJgANaCoyNPMsnwmoq_h-198" value="getBillingStatement(patientId)" style="curved=1;rounded=0;" edge="1" parent="1" source="LJgANaCoyNPMsnwmoq_h-170" target="LJgANaCoyNPMsnwmoq_h-170">
          <mxGeometry relative="1" as="geometry">
            <Array as="points">
              <mxPoint x="481" y="7051" />
              <mxPoint x="481" y="7081" />
            </Array>
          </mxGeometry>
        </mxCell>
        <mxCell id="LJgANaCoyNPMsnwmoq_h-199" value="billingStatement(statementDetails)" style="verticalAlign=bottom;endArrow=block;edgeStyle=elbowEdgeStyle;elbow=vertical;curved=0;rounded=0;dashed=1;dashPattern=2 3;entryX=1.1;entryY=0.805;entryDx=0;entryDy=0;entryPerimeter=0;exitX=-0.1;exitY=0.2;exitDx=0;exitDy=0;exitPerimeter=0;" edge="1" parent="1" source="LJgANaCoyNPMsnwmoq_h-216" target="LJgANaCoyNPMsnwmoq_h-206">
          <mxGeometry relative="1" as="geometry">
            <Array as="points">
              <mxPoint x="281" y="7133" />
            </Array>
          </mxGeometry>
        </mxCell>
        <mxCell id="LJgANaCoyNPMsnwmoq_h-200" value="reviewInsuranceClaims(patientId)" style="verticalAlign=bottom;endArrow=block;elbow=vertical;rounded=0;exitX=1.2;exitY=0.832;exitDx=0;exitDy=0;exitPerimeter=0;entryX=-0.2;entryY=0.52;entryDx=0;entryDy=0;entryPerimeter=0;" edge="1" parent="1" source="LJgANaCoyNPMsnwmoq_h-206" target="LJgANaCoyNPMsnwmoq_h-216">
          <mxGeometry relative="1" as="geometry">
            <mxPoint x="390" y="7190" as="targetPoint" />
          </mxGeometry>
        </mxCell>
        <mxCell id="LJgANaCoyNPMsnwmoq_h-201" value="getInsuranceClaims(patientId)" style="verticalAlign=bottom;endArrow=block;elbow=vertical;rounded=0;exitX=1.067;exitY=0.86;exitDx=0;exitDy=0;exitPerimeter=0;entryX=0.067;entryY=0.133;entryDx=0;entryDy=0;entryPerimeter=0;" edge="1" parent="1" source="LJgANaCoyNPMsnwmoq_h-216" target="LJgANaCoyNPMsnwmoq_h-217">
          <mxGeometry relative="1" as="geometry" />
        </mxCell>
        <mxCell id="LJgANaCoyNPMsnwmoq_h-202" value="insuranceClaims(claimsDetails)" style="verticalAlign=bottom;endArrow=block;elbow=vertical;rounded=0;dashed=1;dashPattern=2 3;entryX=1;entryY=0.885;entryDx=0;entryDy=0;entryPerimeter=0;exitX=0;exitY=0.5;exitDx=0;exitDy=0;" edge="1" parent="1" source="LJgANaCoyNPMsnwmoq_h-217" target="LJgANaCoyNPMsnwmoq_h-206">
          <mxGeometry relative="1" as="geometry" />
        </mxCell>
        <mxCell id="LJgANaCoyNPMsnwmoq_h-203" value="requestNotifications(patientId)" style="verticalAlign=bottom;endArrow=block;elbow=vertical;rounded=0;exitX=1.033;exitY=0.909;exitDx=0;exitDy=0;exitPerimeter=0;entryX=-0.267;entryY=0.8;entryDx=0;entryDy=0;entryPerimeter=0;" edge="1" parent="1" source="LJgANaCoyNPMsnwmoq_h-206" target="LJgANaCoyNPMsnwmoq_h-217">
          <mxGeometry relative="1" as="geometry" />
        </mxCell>
        <mxCell id="LJgANaCoyNPMsnwmoq_h-204" value="generateNotifications(patientId, &quot;Payment Successful&quot;)" style="curved=1;rounded=0;" edge="1" parent="1" source="LJgANaCoyNPMsnwmoq_h-171" target="LJgANaCoyNPMsnwmoq_h-171">
          <mxGeometry relative="1" as="geometry">
            <Array as="points">
              <mxPoint x="761" y="7393" />
              <mxPoint x="761" y="7423" />
            </Array>
          </mxGeometry>
        </mxCell>
        <mxCell id="LJgANaCoyNPMsnwmoq_h-205" value="notifications(notificationDetails)" style="verticalAlign=bottom;endArrow=block;elbow=vertical;rounded=0;dashed=1;dashPattern=2 3;entryX=1.133;entryY=0.978;entryDx=0;entryDy=0;entryPerimeter=0;exitX=0;exitY=0.5;exitDx=0;exitDy=0;" edge="1" parent="1" source="LJgANaCoyNPMsnwmoq_h-218" target="LJgANaCoyNPMsnwmoq_h-206">
          <mxGeometry relative="1" as="geometry" />
        </mxCell>
        <mxCell id="LJgANaCoyNPMsnwmoq_h-206" value="" style="rounded=0;whiteSpace=wrap;html=1;" vertex="1" parent="1">
          <mxGeometry x="95" y="5540" width="30" height="1980" as="geometry" />
        </mxCell>
        <mxCell id="LJgANaCoyNPMsnwmoq_h-207" value="" style="rounded=0;whiteSpace=wrap;html=1;" vertex="1" parent="1">
          <mxGeometry x="416" y="5540" width="30" height="40" as="geometry" />
        </mxCell>
        <mxCell id="LJgANaCoyNPMsnwmoq_h-209" value="" style="rounded=0;whiteSpace=wrap;html=1;" vertex="1" parent="1">
          <mxGeometry x="416" y="5660" width="30" height="110" as="geometry" />
        </mxCell>
        <mxCell id="LJgANaCoyNPMsnwmoq_h-210" value="" style="rounded=0;whiteSpace=wrap;html=1;" vertex="1" parent="1">
          <mxGeometry x="416" y="5850" width="30" height="90" as="geometry" />
        </mxCell>
        <mxCell id="LJgANaCoyNPMsnwmoq_h-211" value="" style="rounded=0;whiteSpace=wrap;html=1;" vertex="1" parent="1">
          <mxGeometry x="416" y="6040" width="30" height="80" as="geometry" />
        </mxCell>
        <mxCell id="LJgANaCoyNPMsnwmoq_h-213" value="" style="rounded=0;whiteSpace=wrap;html=1;" vertex="1" parent="1">
          <mxGeometry x="416" y="6270" width="30" height="240" as="geometry" />
        </mxCell>
        <mxCell id="LJgANaCoyNPMsnwmoq_h-214" value="" style="rounded=0;whiteSpace=wrap;html=1;" vertex="1" parent="1">
          <mxGeometry x="416" y="6780" width="30" height="60" as="geometry" />
        </mxCell>
        <mxCell id="LJgANaCoyNPMsnwmoq_h-215" value="" style="rounded=0;whiteSpace=wrap;html=1;" vertex="1" parent="1">
          <mxGeometry x="416" y="6930" width="30" height="110" as="geometry" />
        </mxCell>
        <mxCell id="LJgANaCoyNPMsnwmoq_h-216" value="" style="rounded=0;whiteSpace=wrap;html=1;" vertex="1" parent="1">
          <mxGeometry x="420" y="7110" width="30" height="150" as="geometry" />
        </mxCell>
        <mxCell id="LJgANaCoyNPMsnwmoq_h-217" value="" style="rounded=0;whiteSpace=wrap;html=1;" vertex="1" parent="1">
          <mxGeometry x="696" y="7220" width="30" height="150" as="geometry" />
        </mxCell>
        <mxCell id="LJgANaCoyNPMsnwmoq_h-218" value="" style="rounded=0;whiteSpace=wrap;html=1;" vertex="1" parent="1">
          <mxGeometry x="696" y="7450" width="30" height="60" as="geometry" />
        </mxCell>
      </root>
    </mxGraphModel>
  </diagram>
</mxfile>
